<svg width="24" height="24" viewBox="0 0 24 24" fill="none" xmlns="http://www.w3.org/2000/svg">
<path d="M18.25 10.75V0.75H5.75V5.75H0.75V23.25H10.75V18.25H13.25V23.25H23.25V10.75H18.25ZM5.75 20.75H3.25V18.25H5.75V20.75ZM5.75 15.75H3.25V13.25H5.75V15.75ZM5.75 10.75H3.25V8.25H5.75V10.75ZM10.75 15.75H8.25V13.25H10.75V15.75ZM10.75 10.75H8.25V8.25H10.75V10.75ZM10.75 5.75H8.25V3.25H10.75V5.75ZM15.75 15.75H13.25V13.25H15.75V15.75ZM15.75 10.75H13.25V8.25H15.75V10.75ZM15.75 5.75H13.25V3.25H15.75V5.75ZM20.75 20.75H18.25V18.25H20.75V20.75ZM20.75 15.75H18.25V13.25H20.75V15.75Z" fill="#5674DE"/>
</svg>
