<svg width="20" height="14" viewBox="0 0 20 14" fill="none" xmlns="http://www.w3.org/2000/svg">
<path fill-rule="evenodd" clip-rule="evenodd" d="M16.2558 0.660123C16.3866 0.26589 16.754 0 17.1677 0H18.3973C18.811 0 19.1783 0.265894 19.3092 0.660123L19.95 2.59121C20.1574 3.21641 19.6941 3.86201 19.038 3.86201H18.2631V13.0345H18.7436C19.0091 13.0345 19.2242 13.2507 19.2242 13.5174C19.2242 13.7839 19.0091 14 18.7436 14H16.8213C16.5558 14 16.3406 13.7839 16.3406 13.5174C16.3406 13.2507 16.5558 13.0345 16.8213 13.0345H17.3018V3.86201H16.5268C15.8708 3.86201 15.4075 3.21641 15.6151 2.59121L16.2558 0.660123ZM17.7824 2.89655H19.038L18.3972 0.96546H17.1676L16.5267 2.89655H17.7824ZM1.92254 6.75855C1.92254 5.95878 2.56798 5.31028 3.36435 5.31028H12.9762C13.7724 5.31028 14.418 5.95878 14.418 6.75855V7.72418H13.4569C13.4569 6.92423 12.8113 6.27591 12.0151 6.27591H10.0926C9.29642 6.27591 8.65083 6.92423 8.65083 7.72418H7.68968C7.68968 6.92423 7.04408 6.27591 6.24787 6.27591H4.32541C3.52921 6.27591 2.88361 6.92423 2.88361 7.72418H1.92246L1.92254 6.75855ZM15.3791 6.75855V7.80661C15.9391 8.00542 16.3404 8.54175 16.3404 9.17245V12.5516H15.3791V13.5173C15.3791 13.7838 15.164 13.9999 14.8986 13.9999C14.6331 13.9999 14.418 13.7838 14.418 13.5173V12.5516H1.92246V13.5173C1.92246 13.7838 1.70715 13.9999 1.4418 13.9999C1.17645 13.9999 0.961148 13.7838 0.961148 13.5173V12.5516H0V9.17245C0 8.54175 0.401163 8.00543 0.961148 7.80661V6.75855C0.961148 5.42552 2.03702 4.34482 3.36427 4.34482H12.9762C14.3032 4.34482 15.3791 5.42552 15.3791 6.75855ZM12.9762 8.68964H14.8986C15.164 8.68964 15.3791 8.90575 15.3791 9.17245V11.5862H0.961065V9.17245C0.961065 8.90575 1.17637 8.68964 1.44172 8.68964H12.9762ZM6.7282 7.72418H3.84459C3.84459 7.45748 4.0599 7.24137 4.32525 7.24137H6.24771C6.51306 7.24137 6.7282 7.45748 6.7282 7.72418ZM12.4954 7.72418H9.61181C9.61181 7.45748 9.82712 7.24137 10.0925 7.24137H12.0149C12.2803 7.24137 12.4954 7.45748 12.4954 7.72418Z" fill="black"/>
</svg>
