<svg width="28" height="28" viewBox="0 0 28 28" fill="none" xmlns="http://www.w3.org/2000/svg">
<path d="M14.0001 5L5 10.4384L5.38302 11.0894L14 5.88113L22.617 11.0894L23 10.4384L14.0001 5Z" fill="#5674DE"/>
<path d="M20.0506 17.1021H19.8592L18.2123 13.502H9.78706L8.14022 17.1021H7.94877C7.22107 17.1021 6.6084 17.7149 6.6084 18.4425V20.7787C6.6084 21.5064 7.22121 22.1191 7.94877 22.1191H7.98712V22.9999H8.75303V22.1191H19.2083V22.9999H19.9742V22.1191H20.0125C20.7402 22.1191 21.3529 21.5063 21.3529 20.7787V18.4425C21.3913 17.7149 20.7785 17.1021 20.0508 17.1021H20.0506ZM10.2847 14.2681H17.7528L19.0549 17.1021H8.98275L10.2847 14.2681ZM10.3231 20.0128H8.86779V19.2469H10.3231V20.0128ZM19.1314 20.0128H17.6761V19.2469H19.1314V20.0128Z" fill="#5674DE"/>
</svg>
