<svg width="28" height="28" viewBox="0 0 28 28" fill="none" xmlns="http://www.w3.org/2000/svg">
<path d="M3.60902 23.2758H3.70902V23.2738C5.01275 23.2211 6.05698 22.1442 6.05698 20.8272V15.456C6.05698 14.1061 4.95892 13.008 3.60902 13.008C3.41644 13.008 3.26011 13.1644 3.26011 13.3569V22.9269C3.26011 23.1195 3.41644 23.2758 3.60902 23.2758ZM3.95792 22.5432V13.7413C4.75637 13.9035 5.35917 14.611 5.35932 15.457C5.35932 15.457 5.35932 15.457 5.35932 15.457V20.8282C5.35932 21.6735 4.75642 22.381 3.95792 22.5432Z" fill="#5674DE" stroke="#5674DE" stroke-width="0.2"/>
<path d="M9.59306 8.71164L18.4486 12.6284L17.286 15.2569L14.5235 14.0351L9.59306 8.71164ZM9.59306 8.71164L8.522 11.1329C8.52198 11.1329 8.52197 11.133 8.52196 11.133C8.47161 11.2473 8.52358 11.3814 8.6376 11.4317L8.63767 11.4317L11.257 12.59L11.2571 12.59C11.4335 12.6682 11.513 12.8741 11.4349 13.0505C11.3568 13.227 11.1509 13.3065 10.9744 13.2284C10.9744 13.2284 10.9744 13.2284 10.9744 13.2284L8.35508 12.0701C7.88892 11.864 7.67736 11.3172 7.88341 10.851L7.88342 10.851L9.09545 8.11068L9.09553 8.1105C9.1736 7.93491 9.3793 7.85459 9.55595 7.9328C9.55596 7.9328 9.55598 7.93281 9.556 7.93282L19.0499 12.1316L19.0503 12.1317C19.1342 12.1692 19.2006 12.2381 19.2342 12.3247C19.2677 12.4112 19.2654 12.5069 19.2278 12.5919L19.2278 12.5919L17.783 15.8579C17.783 15.8579 17.783 15.858 17.783 15.858C17.7258 15.989 17.5977 16.0663 17.4642 16.0663H17.4358L17.4334 16.0649C17.3959 16.0615 17.359 16.052 17.3235 16.0365L17.323 16.0363L14.2413 14.6733L14.2411 14.6733C14.0655 14.5952 13.9852 14.3895 14.0634 14.2128C14.1415 14.0366 14.3472 13.9567 14.5233 14.035L9.59306 8.71164Z" fill="#5674DE" stroke="#5674DE" stroke-width="0.2"/>
<path d="M22.5275 14.3998H22.5585L22.5611 14.3981C22.6274 14.3918 22.6917 14.3666 22.746 14.3232L22.7461 14.3232L25.232 12.3305L25.2321 12.3304C25.3268 12.2543 25.3757 12.1338 25.3597 12.0128L25.3597 12.0126C25.3435 11.8924 25.2664 11.7884 25.1547 11.7389L25.1546 11.7388L11.2262 5.57885L11.2262 5.57884C10.76 5.37279 10.2132 5.58436 10.0071 6.05051L9.09618 8.11034L9.09618 8.11034C9.05858 8.19537 9.05636 8.29104 9.08986 8.37753L9.08986 8.37753C9.12343 8.4642 9.18984 8.53305 9.27372 8.57052L9.27407 8.57068L22.3865 14.3699C22.4318 14.3899 22.4797 14.3998 22.5275 14.3998ZM10.645 6.33367L10.6451 6.3336C10.6954 6.21956 10.8295 6.16759 10.9438 6.21798C10.9438 6.21799 10.9438 6.21799 10.9439 6.218L24.3469 12.1454L22.4744 13.6462L9.87544 8.07402L10.645 6.33367Z" fill="#5674DE" stroke="#5674DE" stroke-width="0.2"/>
<path d="M18.3078 14.8285L18.3484 14.7372C18.2418 14.6897 18.1387 14.6325 18.0432 14.5673C17.8839 14.4577 17.6669 14.4992 17.5582 14.658C17.4494 14.8169 17.4899 15.034 17.6489 15.1429L17.649 15.143C17.78 15.2325 17.9204 15.3107 18.0659 15.3749C18.4074 15.5259 18.7637 15.5974 19.1153 15.5974H19.4692L19.4366 15.5774C20.3151 15.468 21.1171 14.9136 21.5009 14.0467L21.501 14.0464C21.5651 13.9008 21.6164 13.7491 21.6532 13.5948L21.6532 13.5948C21.6979 13.407 21.5818 13.2193 21.3944 13.1747C21.2066 13.13 21.0189 13.246 20.9742 13.4335L21.0715 13.4567M18.3078 14.8285L18.3482 14.7371C19.3092 15.1622 20.4374 14.7257 20.8626 13.7646L20.8626 13.7646C20.9099 13.6578 20.9472 13.5461 20.9743 13.4333L21.0715 13.4567M18.3078 14.8285C19.3193 15.2761 20.5065 14.8167 20.954 13.8051C21.0039 13.6926 21.0431 13.5751 21.0715 13.4567M18.3078 14.8285L21.3712 13.272C21.2373 13.2401 21.1034 13.3228 21.0715 13.4567" fill="#5674DE" stroke="#5674DE" stroke-width="0.2"/>
<path d="M13.127 15.0607C13.1828 14.9352 13.3297 14.878 13.4556 14.9338C13.5811 14.9896 13.6383 15.1365 13.5825 15.2624L13.127 15.0607ZM12.0431 18.9899L13.6739 15.3029C13.6739 15.3029 13.6739 15.3029 13.6739 15.3028C13.7521 15.1262 13.6718 14.9205 13.4962 14.8424L13.4961 14.8424C13.3194 14.7641 13.1137 14.8444 13.0356 15.0201L13.0356 15.0202L11.4047 18.7073L11.4047 18.7074C11.3685 18.7896 11.2871 18.8424 11.1976 18.8424H7.16761C6.97504 18.8424 6.8187 18.9987 6.8187 19.1913C6.8187 19.3839 6.97504 19.5402 7.16761 19.5402H10.839L10.8389 19.5402H11.1976C11.5633 19.5402 11.8952 19.3237 12.0431 18.9899L12.0431 18.9899Z" fill="#5674DE" stroke="#5674DE" stroke-width="0.2"/>
<path d="M10.2142 17.4411H9.83073H7.16761C6.97504 17.4411 6.8187 17.2847 6.8187 17.0921C6.8187 16.8996 6.97504 16.7432 7.16761 16.7432H9.83073C9.92018 16.7432 10.0017 16.6904 10.0378 16.6083L10.0379 16.6081L11.0444 14.3323L11.0445 14.3321C11.1226 14.1565 11.3283 14.0762 11.505 14.1544L11.5051 14.1545C11.6805 14.2325 11.7612 14.4382 11.6827 14.6145M10.2142 17.4411L11.5913 14.5738M10.2142 17.4411L10.1269 17.3922M10.2142 17.4411L10.1269 17.3922M11.6827 14.6145L11.5913 14.5738M11.6827 14.6145L11.6828 14.6143L11.5913 14.5738M11.6827 14.6145L10.6762 16.8901L10.5848 16.8496L11.5913 14.5738M10.1269 17.3922C10.368 17.3104 10.5698 17.1308 10.6762 16.8901L10.1269 17.3922ZM11.1359 14.3727C11.1917 14.2473 11.3385 14.1901 11.4645 14.2459L11.1359 14.3727Z" fill="#5674DE" stroke="#5674DE" stroke-width="0.2"/>
<path d="M10.6878 13.4393C10.6878 14.6235 11.6511 15.5862 12.8347 15.5862C14.0184 15.5862 14.9816 14.6235 14.9816 13.4393C14.9816 12.2552 14.0189 11.2925 12.8347 11.2925C11.6506 11.2925 10.6878 12.2552 10.6878 13.4393ZM11.3856 13.4398C11.3856 12.6408 12.0357 11.9907 12.8347 11.9907C13.6333 11.9907 14.2838 12.6409 14.2838 13.4398C14.2838 14.2388 13.6337 14.8889 12.8347 14.8889C12.0357 14.8889 11.3856 14.2388 11.3856 13.4398Z" fill="#5674DE" stroke="#5674DE" stroke-width="0.2"/>
<path d="M6.8844 17.2962L6.88439 17.2962C6.61187 16.9184 6.17216 16.693 5.70814 16.693C5.51556 16.693 5.35923 16.5367 5.35923 16.3441C5.35923 16.1515 5.51556 15.9952 5.70814 15.9952C6.39644 15.9952 7.04739 16.3289 7.45081 16.8885L7.45086 16.8885C7.71501 17.2556 7.85454 17.6891 7.85454 18.1416C7.85454 18.5945 7.71504 19.0288 7.45081 19.3953L7.4508 19.3953C7.04739 19.9545 6.39649 20.2887 5.70814 20.2887H5.60814V20.2741C5.46424 20.231 5.35923 20.0976 5.35923 19.9397C5.35923 19.7472 5.51556 19.5908 5.70814 19.5908C6.17217 19.5908 6.61245 19.3654 6.88432 18.9878L6.8844 17.2962ZM6.8844 17.2962C7.06266 17.5433 7.15674 17.8355 7.15674 18.1416C7.15674 18.4483 7.06225 18.7404 6.88434 18.9877L6.8844 17.2962Z" fill="#5674DE" stroke="#5674DE" stroke-width="0.2"/>
</svg>
