<svg width="24" height="24" viewBox="0 0 24 24" fill="none" xmlns="http://www.w3.org/2000/svg">
<path d="M2.70789 3.33739V20.448C2.70789 20.9112 3.08865 21.2919 3.55184 21.2919H20.6144L19.8252 22.0811C19.4982 22.4081 19.4982 22.9274 19.8252 23.2544C19.9892 23.4184 20.2072 23.4997 20.4239 23.4997C20.6407 23.4997 20.8587 23.4184 21.0226 23.2544L23.2306 21.0464L23.2307 21.0465L23.2334 21.0436C23.5552 20.695 23.5591 20.1778 23.2307 19.8493L23.2308 19.8492L21.0228 17.6412C20.6958 17.3142 20.1764 17.3142 19.8494 17.6412C19.5224 17.9683 19.5224 18.4876 19.8494 18.8146L20.6386 19.6038L4.34806 19.604V3.33739L5.13726 4.12659C5.30122 4.29055 5.51924 4.37184 5.73597 4.37184L2.70789 3.33739ZM2.70789 3.33739L1.91868 4.12659L1.84797 4.05588L1.91868 4.12659C1.59168 4.45359 1.07235 4.4536 0.745347 4.12659C0.418348 3.79958 0.418347 3.28026 0.745348 2.95326L2.95335 0.745257L3.02406 0.815967L2.95335 0.745256C3.28036 0.418257 3.79968 0.418255 4.12668 0.745257L6.33468 2.95326L6.26397 3.02397L6.33468 2.95326C6.66168 3.28026 6.66169 3.79959 6.33469 4.12659L2.70789 3.33739Z" fill="#5674DE" stroke="#5674DE" stroke-width="0.2"/>
</svg>
