<svg xmlns="http://www.w3.org/2000/svg" width="541.809" height="253.487" viewBox="0 0 541.809 253.487">
    <defs>
        <style>
            .cls-1{fill:#f2f2f2}.cls-1,.cls-3,.cls-4,.cls-6,.cls-7{stroke:#707070}.cls-3{fill:#fdce65}.cls-4{fill:#ccc}.cls-6{fill:#3f3d56}.cls-7{fill:#fff}
        </style>
    </defs>
    <g id="undraw_For_sale_re_egkk" transform="translate(.5 .549)">
        <path id="Path_15" d="M817.083 485.108h-217.8c-5.924 0-10.744-5.332-10.744-11.886V311.251a6.673 6.673 0 0 1 3.548-6.033l82.305-49.825a32.724 32.724 0 0 1 29.039-.029l120.83 49.849a6.674 6.674 0 0 1 3.57 6.043v161.966c-.004 6.554-4.824 11.886-10.748 11.886z" class="cls-1" transform="translate(-324.348 -233.156)"/>
        <path id="Path_16" fill="#6cc7c8" stroke="#707070" d="M785 543.859H597.965c-5.108 0-9.265-3.764-9.265-8.39V422.251a4.7 4.7 0 0 1 3.087-4.3l87.087-34.836a33.9 33.9 0 0 1 24.914-.012l87.382 34.85a4.7 4.7 0 0 1 3.092 4.3v113.216c.001 4.631-4.155 8.39-9.262 8.39z" transform="translate(-324.424 -292.083)"/>
        <circle id="Ellipse_2" cx="27.405" cy="27.405" r="27.405" class="cls-3" transform="translate(134.584 78.069)"/>
        <ellipse id="Ellipse_3" cx="34.71" cy="43.447" class="cls-1" rx="34.71" ry="43.447" transform="translate(138.736 118.359)"/>
        <path id="Path_17" d="M318.457 282.238h.1l1.717 98.409h-3.623z" class="cls-4" transform="translate(-144.916 -129.169)"/>
        <path id="Path_18" d="M427.136 619.248a.858.858 0 0 1-.36 1.159l-4.978 2.621-.8-1.519 4.978-2.621a.858.858 0 0 1 1.159.36z" class="cls-4" transform="translate(-247.674 -401.029)"/>
        <ellipse id="Ellipse_4" cx="34.71" cy="43.447" class="cls-1" rx="34.71" ry="43.447" transform="translate(38.945 118.359)"/>
        <path id="Path_19" d="M241.79 566.285a.858.858 0 0 0-1.159-.359l-3.475 1.83-1.19-68.247h-.1l-1.812 98.409h3.623l-.493-28.24 4.242-2.233a.859.859 0 0 0 .364-1.16z" class="cls-4" transform="translate(-162.119 -346.439)"/>
        <path id="Path_20" fill="#dd9dad" stroke="#707070" d="M291.93 331c24.29 0 44.033 45.769 44.033 76.173s-19.691 55.052-43.982 55.052S248 437.577 248 407.173 267.639 331 291.93 331z" transform="translate(-168.5 -269.32)"/>
        <path id="Path_21" d="M334.883 535.654a1.087 1.087 0 0 0-1.469-.456l-4.4 2.318-1.514-86.475h-.121l-2.3 124.695h4.591l-.624-35.783 5.374-2.83a1.087 1.087 0 0 0 .456-1.469z" class="cls-6" transform="translate(-203.779 -324.257)"/>
        <path id="Path_22" d="M663.039 523.308V511.6a5.758 5.758 0 0 0-5.758-5.758h-29.549a5.758 5.758 0 0 0-5.758 5.758v11.71z" class="cls-7" transform="translate(-339.652 -349.337)"/>
        <path id="Path_23" d="M621.974 541.439v18.145a5.758 5.758 0 0 0 5.758 5.758h29.549a5.758 5.758 0 0 0 5.758-5.758v-18.145z" class="cls-7" transform="translate(-339.652 -365.629)"/>
        <path id="Path_24" fill="#2e6b79" stroke="#707070" d="M776.761 427.851l-88.714-32.52a24.264 24.264 0 0 0-16.7 0l-88.714 32.52A12.373 12.373 0 0 1 566 416.235a12.373 12.373 0 0 1 8.114-11.617l97.231-35.642a24.264 24.264 0 0 1 16.7 0l97.231 35.642a12.372 12.372 0 0 1 8.114 11.617 12.373 12.373 0 0 1-16.631 11.617z" transform="translate(-314.035 -286.021)"/>
        <path id="Path_25" d="M774.034 618.036h-23.71a9.5 9.5 0 0 1-9.491-9.491v-57.42a9.5 9.5 0 0 1 9.491-9.491h23.71a9.5 9.5 0 0 1 9.491 9.491v57.421a9.5 9.5 0 0 1-9.491 9.49zm-23.71-74.776a7.873 7.873 0 0 0-7.864 7.864v57.421a7.873 7.873 0 0 0 7.864 7.864h23.71a7.873 7.873 0 0 0 7.864-7.864v-57.42a7.873 7.873 0 0 0-7.864-7.864z" class="cls-6" transform="translate(-394.049 -365.718)"/>
        <path id="Path_26" d="M777.449 303.263a17.158 17.158 0 0 0-34.18 0z" class="cls-7" transform="translate(-395.164 -249.473)"/>
        <path id="Path_27" d="M743.151 319.842a17.155 17.155 0 1 0 34.31 0z" class="cls-7" transform="translate(-395.11 -264.213)"/>
        <path id="Path_28" d="M772.663 346.078h-28.807a5.174 5.174 0 0 1 0-10.349h28.807a5.174 5.174 0 0 1 0 10.349z" class="cls-4" transform="translate(-393.065 -271.484)"/>
        <path id="Path_29" d="M618.63 574.713a4.632 4.632 0 0 0 0 9.264h40.452a4.632 4.632 0 0 0 0-9.264z" class="cls-4" transform="translate(-336.002 -380.857)"/>
        <path id="Path_30" d="M854.216 541.439v18.145a5.758 5.758 0 0 0 5.758 5.758h29.549a5.758 5.758 0 0 0 5.758-5.758v-18.145z" class="cls-7" transform="translate(-445.94 -365.629)"/>
        <path id="Path_31" d="M895.281 523.308V511.6a5.759 5.759 0 0 0-5.758-5.758h-29.549a5.758 5.758 0 0 0-5.758 5.758v11.71z" class="cls-7" transform="translate(-445.94 -349.337)"/>
        <circle id="Ellipse_5" cx="3.371" cy="3.371" r="3.371" class="cls-6" transform="translate(378.856 209.214)"/>
        <path id="Path_32" d="M484.781 378.214L471.5 357.559l.614-.4 12.6 19.6 10.267-19.571.646.339z" class="cls-6" transform="translate(-215.788 -163.46)"/>
        <path id="Path_33" d="M570.958 556.516h-31.587v-.548a6.756 6.756 0 0 0-6.756-6.756 6.756 6.756 0 0 0-6.756 6.756v.548h-3.1a6.756 6.756 0 1 0 0 13.511h3.1v51.053c13.461-.27-.1.273 13.511 0v-51.053h31.587a6.756 6.756 0 0 0 0-13.511z" class="cls-6" transform="translate(-291.152 -369.187)"/>
        <circle id="Ellipse_6" cx="2.556" cy="2.556" r="2.556" class="cls-7" transform="translate(238.724 191.346)"/>
        <path id="Path_34" d="M595.7 620.455h-29.211a5.209 5.209 0 0 1-5.2-5.2v-9.489a5.209 5.209 0 0 1 5.2-5.2H595.7a5.209 5.209 0 0 1 5.2 5.2v9.489a5.209 5.209 0 0 1-5.2 5.2z" class="cls-4" transform="translate(-311.878 -392.686)"/>
        <rect id="Rectangle_13" width="22.641" height="4.017" class="cls-3" rx="2.008" transform="translate(257.713 215.447)"/>
        <path id="Path_35" d="M641.8 682.022H101.832a.419.419 0 0 1 0-.839H641.8a.419.419 0 0 1 0 .839z" class="cls-4" transform="translate(-101.412 -429.585)"/>
        <path id="Path_36" d="M890.3 584.062h-40.451a5.174 5.174 0 0 1 0-10.349H890.3a5.174 5.174 0 1 1 0 10.349z" class="cls-4" transform="translate(-441.573 -380.4)"/>
        <path id="Path_37" d="M918.245 300.769s-9.81-.7-29.829-1.627C864.553 257.381 787 247.316 787 217.27h95.325a35.961 35.961 0 0 1 35.961 35.961z" class="cls-4" transform="translate(-415.177 -217.27)"/>
        <path id="Path_38" d="M875.869 237.514a.814.814 0 0 0-.813.814v27.16a.814.814 0 0 0 .813.814h16.918a.814.814 0 0 0 .814-.814v-27.16a.814.814 0 0 0-.814-.814z" class="cls-1" transform="translate(-455.477 -226.535)"/>
        <path id="Path_39" d="M785.345 298.578l-88.714-53.47a24.264 24.264 0 0 0-16.7 0l-88.714 53.47a12.373 12.373 0 0 1-16.631-11.617 12.372 12.372 0 0 1 8.114-11.617l97.23-56.592a24.264 24.264 0 0 1 16.7 0l97.231 56.592a12.372 12.372 0 0 1 8.114 11.617 12.373 12.373 0 0 1-16.631 11.617z" class="cls-4" transform="translate(-317.964 -217.27)"/>
    </g>
</svg>
