<svg width="30" height="30" viewBox="0 0 30 30" fill="none" xmlns="http://www.w3.org/2000/svg">
<path d="M20.616 22.4487H20.716V22.445C21.4881 22.3934 22.1001 21.7489 22.1001 20.9639V4.48322C22.1001 3.66439 21.4346 2.99848 20.616 2.99848H8.00024H7.90024V3.09848V21.765V21.865H8.00024H9.1669H9.2669V21.765V4.36514H20.616C20.6807 4.36514 20.7335 4.4175 20.7335 4.48324V20.964C20.7335 21.0297 20.6807 21.0821 20.616 21.0821H16.1668H16.0668V21.1821V22.3487V22.4487H16.1668H20.616Z" fill="#5674DE" stroke="#5674DE" stroke-width="0.2"/>
<path d="M8.31097 22.4009L8.31088 22.4008C8.05331 22.241 7.9 21.965 7.9 21.6629V4.01296C7.9 3.53418 8.28955 3.14539 8.76757 3.14539C8.92844 3.14539 9.08637 3.1903 9.22397 3.276C9.22401 3.27602 9.22405 3.27605 9.22409 3.27607L16.394 7.71347C16.394 7.71351 16.3941 7.71354 16.3942 7.71358C16.6515 7.87125 16.8057 8.14811 16.8057 8.45142V26.1013C16.8057 26.5801 16.4161 26.9695 15.9368 26.9695H15.9368C15.776 26.9695 15.6181 26.9247 15.4805 26.839L8.31097 22.4009ZM8.31097 22.4009L15.4803 26.8389L8.31097 22.4009ZM9.26667 4.90903L15.439 8.73019V25.2057L9.26667 21.3849V4.90903Z" fill="#5674DE" stroke="#5674DE" stroke-width="0.2"/>
<path d="M13.8335 14.6654H13.7335V14.7654V17.0988V17.1988H13.8335H15.0002H15.1002V17.0988V14.7654V14.6654H15.0002H13.8335Z" fill="#5674DE" stroke="#5674DE" stroke-width="0.2"/>
</svg>
