<svg width="30" height="30" viewBox="0 0 30 30" fill="none" xmlns="http://www.w3.org/2000/svg">
<path d="M7.91454 25.1858H6.34277H6.24277V25.2858V25.8192V25.9192H6.34277H23.6845H23.7845V25.8192V25.2858V25.1858L23.6845 25.1858L22.4215 25.1857V10.7554V10.6554H22.3215H15.4067V4.15714V3.98689L15.258 4.06979L7.96585 8.13534L7.91454 8.16395V8.22269V25.1858ZM8.6479 8.595L14.6729 5.23544V25.1856H8.6479V23.8663H12.5361H12.6361V23.7663V21.5259V21.4259H12.5361H8.6479V20.2249H12.5361H12.6361V20.1249V17.8846V17.7846H12.5361H8.6479V16.5345H12.5361H12.6361V16.4345V14.1942V14.0942H12.5361H8.6479V12.8932H12.5361H12.6361V12.7932V10.5527V10.4527L12.5361 10.4527L8.6479 10.4526V8.595ZM21.6882 11.3886V25.1857H15.4065V11.3886H21.6882ZM8.6479 11.1853H11.9027V12.1592H8.6479V11.1853ZM8.6479 14.827H11.9027V15.8006H8.6479V14.827ZM8.6479 18.5176H11.9027V19.4911H8.6479V18.5176ZM8.6479 22.1593H11.9027V23.1332H8.6479V22.1593Z" fill="#5674DE" stroke="#5674DE" stroke-width="0.2"/>
<path d="M20.7153 12.9073V12.8073H20.6153H16.4783H16.3783V12.9073V24.0797V24.1797H16.4783H20.6153V24.0801H20.7153V24.0797V23.9797V12.9073ZM17.1116 22.4806H18.1799V23.4468H17.1116V22.4806ZM18.9133 20.1424V19.1248H19.9821V20.1424H18.9133ZM19.9821 20.8758V21.7472H18.9133V20.8758H19.9821ZM18.9133 18.3914V17.1993H19.9821V18.3914H18.9133ZM19.9821 16.4659H18.9133V15.4483H19.9821V16.4659ZM18.1799 16.4659H17.1116V15.4483H18.1799V16.4659ZM18.1799 17.1992V18.3914H17.1116V17.1992H18.1799ZM17.1116 19.1248H18.1799V20.1424H17.1116V19.1248ZM18.1799 20.8757V21.7472H17.1116V20.8757H18.1799ZM18.9133 23.4467V22.4805H19.982V23.4467H18.9133ZM19.982 14.715H18.9133V13.5409H19.982V14.715ZM18.1799 13.5405V14.7146H17.1115V13.5405H18.1799Z" fill="#5674DE" stroke="#5674DE" stroke-width="0.2"/>
</svg>
