<svg width="28" height="28" viewBox="0 0 28 28" fill="none" xmlns="http://www.w3.org/2000/svg">
<path d="M9.02993 14.28H12.5299C12.6227 14.28 12.7118 14.2431 12.7774 14.1775C12.8431 14.1119 12.8799 14.0228 12.8799 13.93V11.83C12.8799 11.7372 12.8431 11.6481 12.7774 11.5825C12.7118 11.5169 12.6227 11.48 12.5299 11.48H9.02993C8.83665 11.48 8.67993 11.6367 8.67993 11.83V13.93C8.67993 14.0228 8.71681 14.1119 8.78243 14.1775C8.84806 14.2431 8.93712 14.28 9.02993 14.28ZM9.37993 12.18H12.1799V13.58H9.37993V12.18Z" fill="#5674DE"/>
<path d="M8.67993 14.98H10.0799V15.68H8.67993V14.98Z" fill="#5674DE"/>
<path d="M11.48 14.98H12.88V15.68H11.48V14.98Z" fill="#5674DE"/>
<path d="M8.67993 16.38H12.8799V17.08H8.67993V16.38Z" fill="#5674DE"/>
<path d="M8.67993 17.78H9.37993V19.88H8.67993V17.78Z" fill="#5674DE"/>
<path d="M10.4299 17.78H11.1299V19.88H10.4299V17.78Z" fill="#5674DE"/>
<path d="M12.1799 17.78H12.8799V19.88H12.1799V17.78Z" fill="#5674DE"/>
<path d="M19.53 15.33H18.2245L19.6245 13.818L19.1066 13.342L17.1816 15.442C17.0872 15.5442 17.0625 15.6927 17.1184 15.82C17.1728 15.9445 17.2942 16.0264 17.43 16.03H18.7355L17.3355 17.542L17.8535 18.018L19.7785 15.918C19.8728 15.8158 19.8975 15.6673 19.8416 15.54C19.7872 15.4155 19.6658 15.3336 19.53 15.33Z" fill="#5674DE"/>
<path d="M22.33 4.47998H10.43V5.17998H21.98V6.57998H21.28V6.22998C21.28 6.13717 21.2431 6.0481 21.1775 5.98248C21.1119 5.91686 21.0228 5.87998 20.93 5.87998H16.03C15.8367 5.87998 15.68 6.0367 15.68 6.22998V7.62998C15.68 7.72279 15.7169 7.81186 15.7825 7.87748C15.8481 7.9431 15.9372 7.97998 16.03 7.97998H16.73V8.67998H4.82998C4.6367 8.67998 4.47998 8.8367 4.47998 9.02998V20.93C4.47998 21.0228 4.51686 21.1119 4.58248 21.1775C4.64811 21.2431 4.73717 21.28 4.82998 21.28H5.52998V22.33C5.52998 22.4228 5.56686 22.5119 5.63248 22.5775C5.6981 22.6431 5.78717 22.68 5.87998 22.68H8.67998C8.77279 22.68 8.86186 22.6431 8.92748 22.5775C8.9931 22.5119 9.02998 22.4228 9.02998 22.33V21.28H18.13V22.33C18.13 22.4228 18.1669 22.5119 18.2325 22.5775C18.2981 22.6431 18.3872 22.68 18.48 22.68H21.28C21.3728 22.68 21.4619 22.6431 21.5275 22.5775C21.5931 22.5119 21.63 22.4228 21.63 22.33V21.28H22.33C22.4228 21.28 22.5119 21.2431 22.5775 21.1775C22.6431 21.1119 22.68 21.0228 22.68 20.93V9.02998C22.68 8.93717 22.6431 8.8481 22.5775 8.78248C22.5119 8.71686 22.4228 8.67998 22.33 8.67998H20.23V7.97998H20.93C21.0228 7.97998 21.1119 7.9431 21.1775 7.87748C21.2431 7.81185 21.28 7.72279 21.28 7.62998V7.27998H22.33C22.4228 7.27998 22.5119 7.2431 22.5775 7.17748C22.6431 7.11185 22.68 7.02279 22.68 6.92998V4.82998C22.68 4.73717 22.6431 4.6481 22.5775 4.58248C22.5119 4.51686 22.4228 4.47998 22.33 4.47998ZM8.32998 21.98H6.22998V21.28H8.32998V21.98ZM7.27998 19.18H6.57998V18.48H7.27998V19.18ZM7.27998 12.18H6.57998V11.48H7.27998V12.18ZM15.68 20.58H7.97998V10.78H15.68V20.58ZM16.38 20.58V10.78H20.58V20.58H16.38ZM20.93 21.98H18.83V21.28H20.93V21.98ZM21.98 9.37998V20.58H21.28V10.43C21.28 10.3372 21.2431 10.2481 21.1775 10.1825C21.1119 10.1169 21.0228 10.08 20.93 10.08H7.62998C7.4367 10.08 7.27998 10.2367 7.27998 10.43V10.78H6.22998C6.0367 10.78 5.87998 10.9367 5.87998 11.13V12.53C5.87998 12.6228 5.91686 12.7119 5.98248 12.7775C6.0481 12.8431 6.13717 12.88 6.22998 12.88H7.27998V17.78H6.22998C6.0367 17.78 5.87998 17.9367 5.87998 18.13V19.53C5.87998 19.6228 5.91686 19.7119 5.98248 19.7775C6.0481 19.8431 6.13717 19.88 6.22998 19.88H7.27998V20.58H5.17998V9.37998H21.98ZM17.43 8.67998V7.97998H18.13V8.67998H17.43ZM18.83 8.67998V7.97998H19.53V8.67998H18.83ZM20.58 7.27998H16.38V6.57998H20.58V7.27998Z" fill="#5674DE"/>
</svg>
