<svg width="28" height="28" viewBox="0 0 28 28" fill="none" xmlns="http://www.w3.org/2000/svg">
<path d="M23.0796 11.4243C23.6746 11.1093 23.8496 10.3743 23.5346 9.77926L22.4496 7.78426C22.3096 7.50426 22.0296 7.29426 21.7146 7.22426C21.3996 7.15426 21.0846 7.18926 20.8046 7.32926L20.6296 7.43426C20.4896 7.50426 20.3496 7.64426 20.2446 7.78426L19.6846 6.76926C19.3696 6.17426 18.6346 5.99926 18.0396 6.31426L17.8646 6.38426C17.7246 6.48926 17.5846 6.59426 17.4796 6.73426L17.1996 6.20926C16.8846 5.61426 16.1496 5.43926 15.5546 5.75426L15.3796 5.85926C14.7846 6.17426 14.6096 6.90926 14.9246 7.50426L16.7796 10.8293L9.04439 15.1693L7.18939 11.8443C6.87439 11.2493 6.13939 11.0743 5.54439 11.3893L5.36939 11.4943C4.77439 11.8093 4.59939 12.5443 4.91439 13.1393L5.19439 13.6643C5.01939 13.6643 4.84439 13.7343 4.70439 13.8043L4.52939 13.9093C4.24939 14.0493 4.03939 14.3293 3.96939 14.6443C3.89939 14.9593 3.93439 15.2743 4.07439 15.5543L4.63439 16.5693C4.45939 16.5693 4.28439 16.6393 4.14439 16.7093L3.96939 16.8143C3.37439 17.1293 3.19939 17.8643 3.51439 18.4593L4.59939 20.3843C4.80939 20.7693 5.22939 21.0143 5.64939 21.0143C5.85939 21.0143 6.03439 20.9793 6.24439 20.8743L6.41939 20.7693C6.55939 20.6993 6.69939 20.5593 6.80439 20.4193L7.36439 21.4343C7.57439 21.8193 7.99439 22.0643 8.41439 22.0643C8.62439 22.0643 8.79939 22.0293 9.00939 21.9243L9.18439 21.8193C9.32439 21.7493 9.46439 21.6093 9.56939 21.4693L9.84939 21.9943C10.0594 22.3793 10.4794 22.6243 10.8994 22.6243C11.1094 22.6243 11.2844 22.5893 11.4944 22.4843L11.6694 22.3793C12.2644 22.0643 12.4394 21.3293 12.1244 20.7343L10.3044 17.4793L18.0396 13.1393L19.8596 16.3943C19.9996 16.6743 20.2796 16.8843 20.5946 16.9543C20.6996 16.9893 20.8046 16.9893 20.9096 16.9893C21.1196 16.9893 21.3296 16.9543 21.5046 16.8493L21.6796 16.7443C22.2746 16.4293 22.4496 15.6943 22.1346 15.0993L21.8546 14.5743C22.0296 14.5743 22.2046 14.5043 22.3446 14.4343L22.5196 14.3293C22.7996 14.1893 23.0096 13.9093 23.0796 13.5943C23.1496 13.2793 23.1146 12.9643 22.9746 12.6843L22.4146 11.6343C22.5896 11.6343 22.7646 11.5643 22.9046 11.4943L23.0796 11.4243ZM6.06959 20.1395L5.89459 20.2445C5.64959 20.3845 5.33459 20.2795 5.19459 20.0345L4.07459 18.0395C3.93459 17.7945 4.03959 17.4795 4.28459 17.3395L4.45959 17.2345C4.52959 17.1995 4.63459 17.1645 4.70459 17.1645C4.73959 17.1645 4.80959 17.1645 4.84459 17.1995C4.98459 17.2345 5.08959 17.3045 5.15959 17.4445L6.27959 19.4045C6.41959 19.6845 6.31459 19.9995 6.06959 20.1395ZM8.83459 21.1545L8.65959 21.2595C8.41459 21.3995 8.09959 21.2945 7.95959 21.0495L6.87459 19.1245L6.31459 18.1445L4.66959 15.2045C4.59959 15.0995 4.59959 14.9595 4.63459 14.8195C4.66959 14.6795 4.73959 14.5745 4.87959 14.5045L5.05459 14.3995C5.12459 14.3645 5.22959 14.3295 5.29959 14.3295C5.33459 14.3295 5.40459 14.3295 5.43959 14.3645C5.57959 14.3995 5.68459 14.4695 5.75459 14.6095L9.04459 20.4895C9.14959 20.6995 9.07959 21.0145 8.83459 21.1545ZM11.4946 21.0145C11.5646 21.1195 11.5646 21.2595 11.5296 21.3995C11.4946 21.5395 11.4246 21.6445 11.2846 21.7145L11.1446 21.7845C10.8996 21.9245 10.5846 21.8195 10.4446 21.5745L5.50939 12.7545C5.43939 12.6495 5.43939 12.5095 5.47439 12.3695C5.50939 12.2295 5.57939 12.1245 5.71939 12.0545L5.89439 11.9495C5.96439 11.9145 6.06939 11.8795 6.13939 11.8795C6.31439 11.8795 6.48939 11.9845 6.59439 12.1245L8.97439 16.4645L9.70939 17.7595L11.4946 21.0145ZM9.9546 16.8145L9.8496 16.6395L9.39459 15.7995L17.1298 11.4595L17.6898 12.4745L9.9546 16.8145ZM21.3298 16.0795L21.1548 16.1845C21.0498 16.2545 20.9098 16.2545 20.7698 16.2195C20.6298 16.1845 20.5248 16.1145 20.4548 15.9745L18.6348 12.7195L18.2848 12.1245L15.4848 7.15446C15.3448 6.90946 15.4498 6.59446 15.6948 6.45446L15.8698 6.34946C15.9398 6.31446 16.0448 6.27946 16.1148 6.27946C16.2898 6.27946 16.4648 6.38446 16.5698 6.52446L17.4098 7.99446L20.6998 13.8745L21.5398 15.3445C21.6798 15.6595 21.5748 15.9395 21.3298 16.0795ZM22.4148 13.3845C22.3798 13.5245 22.3098 13.6295 22.1698 13.6995L21.9948 13.8045C21.8898 13.8745 21.7498 13.8745 21.6098 13.8395C21.4698 13.8045 21.3648 13.7345 21.2948 13.5945L18.4598 8.51926L18.0048 7.71426C17.8648 7.46926 17.9698 7.15426 18.2148 7.01426L18.3898 6.90926C18.4598 6.87426 18.5648 6.83926 18.6348 6.83926C18.8098 6.83926 18.9848 6.94426 19.0898 7.08426L20.7348 10.0243L21.2948 11.0043L22.3798 12.9643C22.4498 13.1043 22.4498 13.2443 22.4148 13.3843V13.3845ZM22.7648 10.7945L22.5898 10.8995C22.4848 10.9695 22.3448 10.9695 22.2048 10.9345C22.0648 10.8995 21.9598 10.8295 21.8898 10.6895L20.7698 8.72946C20.6998 8.62446 20.6998 8.48446 20.7348 8.34446C20.7698 8.20446 20.8398 8.09946 20.9798 8.02946L21.1548 7.92446C21.2248 7.88946 21.3298 7.85446 21.3998 7.85446C21.4348 7.85446 21.5048 7.85446 21.5398 7.88946C21.6798 7.92446 21.7848 7.99446 21.8548 8.13446L22.9748 10.1295C23.0798 10.3395 23.0098 10.6545 22.7648 10.7945Z" fill="#5674DE"/>
</svg>
