<svg width="17" height="24" viewBox="0 0 17 24" fill="none" xmlns="http://www.w3.org/2000/svg">
<path d="M15.5 5.75H12.7375C12.4968 4.83974 12.0713 3.98876 11.4875 3.25H15.5C15.8315 3.25 16.1495 3.1183 16.3839 2.88388C16.6183 2.64946 16.75 2.33152 16.75 2C16.75 1.66848 16.6183 1.35054 16.3839 1.11612C16.1495 0.881696 15.8315 0.75 15.5 0.75H1.75003C1.41851 0.75 1.10057 0.881696 0.866146 1.11612C0.631726 1.35054 0.500029 1.66848 0.500029 2C0.500029 2.33152 0.631726 2.64946 0.866146 2.88388C1.10057 3.1183 1.41851 3.25 1.75003 3.25H6.12503C6.95033 3.2529 7.75797 3.48917 8.45471 3.93154C9.15144 4.37391 9.70883 5.00433 10.0625 5.75H1.75003C1.41851 5.75 1.10057 5.8817 0.866146 6.11612C0.631726 6.35054 0.500029 6.66848 0.500029 7C0.500029 7.33152 0.631726 7.64946 0.866146 7.88388C1.10057 8.1183 1.41851 8.25 1.75003 8.25H10.5C10.3502 9.28825 9.83227 10.2381 9.04068 10.9264C8.24909 11.6148 7.23653 11.9958 6.18753 12H1.75003C1.69184 11.9942 1.63322 11.9942 1.57503 12C1.4922 11.9871 1.40786 11.9871 1.32503 12C1.23983 12.029 1.15969 12.0712 1.08753 12.125L0.937529 12.2125C0.869057 12.2743 0.810089 12.3459 0.762529 12.425C0.720664 12.4804 0.683056 12.5389 0.650029 12.6C0.638903 12.6746 0.638903 12.7504 0.650029 12.825C0.560952 12.9497 0.508952 13.097 0.500029 13.25C0.494181 13.3082 0.494181 13.3668 0.500029 13.425C0.487132 13.5078 0.487132 13.5922 0.500029 13.675C0.529048 13.7602 0.571225 13.8403 0.625029 13.9125C0.625029 13.9125 0.62503 14.0125 0.712529 14.0625L8.21253 22.8125C8.42802 23.0645 8.73477 23.2205 9.0653 23.2463C9.39584 23.2721 9.72307 23.1655 9.97503 22.95C10.227 22.7345 10.383 22.4278 10.4088 22.0972C10.4346 21.7667 10.328 21.4395 10.1125 21.1875L4.47503 14.5H6.12503C7.8451 14.5071 9.50536 13.8692 10.7781 12.7121C12.0509 11.5551 12.8437 9.96297 13 8.25H15.5C15.8315 8.25 16.1495 8.1183 16.3839 7.88388C16.6183 7.64946 16.75 7.33152 16.75 7C16.75 6.66848 16.6183 6.35054 16.3839 6.11612C16.1495 5.8817 15.8315 5.75 15.5 5.75Z" fill="#5674DE"/>
</svg>
