<svg width="26" height="26" viewBox="0 0 26 26" fill="none" xmlns="http://www.w3.org/2000/svg">
<path d="M24.4583 5.85833C24.7744 5.85833 25.0775 5.73278 25.301 5.5093C25.5245 5.28582 25.65 4.98272 25.65 4.66667V1.54167C25.65 1.22562 25.5245 0.922512 25.301 0.699031C25.0775 0.47555 24.7744 0.35 24.4583 0.35H21.3333C21.0173 0.35 20.7142 0.47555 20.4907 0.699031C20.2672 0.922512 20.1417 1.22562 20.1417 1.54167V2.43333H5.85833V1.54167C5.85833 1.22562 5.73278 0.922512 5.5093 0.699031C5.28582 0.47555 4.98272 0.35 4.66667 0.35H1.54167C1.22562 0.35 0.922512 0.47555 0.699031 0.699031C0.47555 0.922512 0.35 1.22562 0.35 1.54167V4.66667C0.35 4.98272 0.47555 5.28582 0.699031 5.5093C0.922512 5.73278 1.22562 5.85833 1.54167 5.85833H2.43333V20.1417H1.54167C1.22562 20.1417 0.922512 20.2672 0.699032 20.4907C0.47555 20.7142 0.35 21.0173 0.35 21.3333V24.4583C0.35 24.7744 0.47555 25.0775 0.699031 25.301C0.922512 25.5245 1.22562 25.65 1.54167 25.65H4.66667C4.98272 25.65 5.28582 25.5245 5.5093 25.301C5.73278 25.0775 5.85833 24.7744 5.85833 24.4583V23.5667H20.1417V24.4583C20.1417 24.7744 20.2672 25.0775 20.4907 25.301C20.7142 25.5245 21.0173 25.65 21.3333 25.65H24.4583C24.7744 25.65 25.0775 25.5245 25.301 25.301C25.5245 25.0775 25.65 24.7744 25.65 24.4583V21.3333C25.65 21.0173 25.5245 20.7142 25.301 20.4907C25.0775 20.2672 24.7744 20.1417 24.4583 20.1417H23.5667V5.85833H24.4583ZM1.69167 4.51667V1.69167H4.51667V4.51667H1.69167ZM4.51667 24.3083H1.69167V21.4833H4.51667V24.3083ZM20.1417 21.3333V22.225H5.85833V21.3333C5.85833 21.0173 5.73278 20.7142 5.5093 20.4907C5.28582 20.2672 4.98272 20.1417 4.66667 20.1417H3.775V5.85833H4.66667C4.98272 5.85833 5.28582 5.73278 5.5093 5.5093C5.73278 5.28582 5.85833 4.98272 5.85833 4.66667V3.775H20.1417V4.66667C20.1417 4.98272 20.2672 5.28582 20.4907 5.5093C20.7142 5.73278 21.0173 5.85833 21.3333 5.85833H22.225V20.1417H21.3333C21.0173 20.1417 20.7142 20.2672 20.4907 20.4907C20.2672 20.7142 20.1417 21.0173 20.1417 21.3333ZM24.3083 21.4833V24.3083H21.4833V21.4833H24.3083ZM21.4833 4.51667V1.69167H24.3083V4.51667H21.4833Z" fill="#5674DE" stroke="#5674DE" stroke-width="0.3"/>
</svg>
