<svg width="28" height="28" viewBox="0 0 28 28" fill="none" xmlns="http://www.w3.org/2000/svg">
<path d="M24.2113 24.2447C23.3219 24.2447 22.8936 23.7506 22.4983 23.3223C22.136 22.927 21.8724 22.6306 21.2796 22.6306C20.6866 22.6306 20.4232 22.927 20.0608 23.3223C19.6655 23.7506 19.2372 24.2447 18.3478 24.2447C17.4585 24.2447 17.0302 23.7506 16.6349 23.3223C16.2725 22.927 16.009 22.6306 15.4161 22.6306C14.8232 22.6306 14.5597 22.927 14.1974 23.3223C13.802 23.7506 13.3738 24.2447 12.4844 24.2447C11.595 24.2447 11.1668 23.7506 10.7714 23.3223C10.4091 22.927 10.1455 22.6306 9.55268 22.6306C8.95972 22.6306 8.69628 22.927 8.33392 23.3223C7.93861 23.7506 7.51032 24.2447 6.62096 24.2447C5.7316 24.2447 5.30332 23.7506 4.908 23.3223C4.54566 22.927 4.28208 22.6306 3.68924 22.6306C3.49158 22.6306 3.35986 22.4989 3.35986 22.3012C3.35986 22.1036 3.49158 21.9719 3.68924 21.9719C4.5786 21.9719 5.00688 22.4659 5.4022 22.8942C5.76454 23.2895 6.02812 23.5859 6.62096 23.5859C7.21392 23.5859 7.47736 23.2895 7.83972 22.8942C8.23503 22.4659 8.66332 21.9719 9.55268 21.9719C10.442 21.9719 10.8703 22.4659 11.2656 22.8942C11.628 23.2895 11.8916 23.5859 12.4844 23.5859C13.0774 23.5859 13.3408 23.2895 13.7032 22.8942C14.0985 22.4659 14.5268 21.9719 15.4161 21.9719C16.3055 21.9719 16.7338 22.4659 17.1291 22.8942C17.4914 23.2895 17.755 23.5859 18.3478 23.5859C18.9408 23.5859 19.2042 23.2895 19.5666 22.8942C19.9619 22.4659 20.3902 21.9719 21.2796 21.9719C22.1689 21.9719 22.5972 22.4659 22.9925 22.8942C23.3549 23.2895 23.6184 23.5859 24.2113 23.5859C24.4089 23.5859 24.5407 23.7177 24.5407 23.9153C24.5408 24.113 24.4089 24.2447 24.2113 24.2447Z" fill="#5674DE"/>
<path d="M24.2113 21.6095C23.3219 21.6095 22.8936 21.1154 22.4983 20.6871C22.136 20.2918 21.8724 19.9954 21.2796 19.9954C20.6866 19.9954 20.4232 20.2918 20.0608 20.6871C19.6655 21.1154 19.2372 21.6095 18.3478 21.6095C17.4585 21.6095 17.0302 21.1154 16.6349 20.6871C16.2725 20.2918 16.009 19.9954 15.4161 19.9954C14.8232 19.9954 14.5597 20.2918 14.1974 20.6871C13.802 21.1154 13.3738 21.6095 12.4844 21.6095C11.595 21.6095 11.1668 21.1154 10.7714 20.6871C10.4091 20.2918 10.1455 19.9954 9.55268 19.9954C8.95972 19.9954 8.69628 20.2918 8.33392 20.6871C7.93861 21.1154 7.51032 21.6095 6.62096 21.6095C5.7316 21.6095 5.30332 21.1154 4.908 20.6871C4.54566 20.2918 4.28208 19.9954 3.68924 19.9954C3.49158 19.9954 3.35986 19.8637 3.35986 19.666C3.35986 19.4684 3.49158 19.3367 3.68924 19.3367C4.5786 19.3367 5.00688 19.8308 5.4022 20.259C5.76454 20.6543 6.02812 20.9508 6.62096 20.9508C7.21392 20.9508 7.47736 20.6543 7.83972 20.259C8.23503 19.8308 8.66332 19.3367 9.55268 19.3367C10.442 19.3367 10.8703 19.8308 11.2656 20.259C11.628 20.6543 11.8916 20.9508 12.4844 20.9508C13.0774 20.9508 13.3408 20.6543 13.7032 20.259C14.0985 19.8308 14.5268 19.3367 15.4161 19.3367C16.3055 19.3367 16.7338 19.8308 17.1291 20.259C17.4914 20.6543 17.755 20.9508 18.3478 20.9508C18.9408 20.9508 19.2042 20.6543 19.5666 20.259C19.9619 19.8308 20.3902 19.3367 21.2796 19.3367C22.1689 19.3367 22.5972 19.8308 22.9925 20.259C23.3549 20.6543 23.6184 20.9508 24.2113 20.9508C24.4089 20.9508 24.5407 21.0825 24.5407 21.2801C24.5408 21.4778 24.4089 21.6095 24.2113 21.6095Z" fill="#5674DE"/>
<path d="M24.2113 18.9739C23.3219 18.9739 22.8936 18.4798 22.4983 18.0515C22.136 17.6562 21.8724 17.3598 21.2796 17.3598C20.6866 17.3598 20.4232 17.6562 20.0608 18.0515C19.6655 18.4798 19.2372 18.9739 18.3478 18.9739C17.4585 18.9739 17.0302 18.4798 16.6349 18.0515C16.2725 17.6562 16.009 17.3598 15.4161 17.3598C14.8232 17.3598 14.5597 17.6562 14.1974 18.0515C13.802 18.4798 13.3738 18.9739 12.4844 18.9739C11.595 18.9739 11.1668 18.4798 10.7714 18.0515C10.4091 17.6562 10.1455 17.3598 9.55268 17.3598C8.95972 17.3598 8.69628 17.6562 8.33392 18.0515C7.93861 18.4798 7.51032 18.9739 6.62096 18.9739C5.7316 18.9739 5.30332 18.4798 4.908 18.0515C4.54566 17.6562 4.28208 17.3598 3.68924 17.3598C3.49158 17.3598 3.35986 17.2281 3.35986 17.0304C3.35986 16.8328 3.49158 16.701 3.68924 16.701C4.5786 16.701 5.00688 17.1951 5.4022 17.6234C5.76454 18.0187 6.02812 18.3151 6.62096 18.3151C7.21392 18.3151 7.47736 18.0187 7.83972 17.6234C8.23503 17.1951 8.66332 16.701 9.55268 16.701C10.442 16.701 10.8703 17.1951 11.2656 17.6234C11.628 18.0187 11.8916 18.3151 12.4844 18.3151C13.0774 18.3151 13.3408 18.0187 13.7032 17.6234C14.0985 17.1951 14.5268 16.701 15.4161 16.701C16.3055 16.701 16.7338 17.1951 17.1291 17.6234C17.4914 18.0187 17.755 18.3151 18.3478 18.3151C18.9408 18.3151 19.2042 18.0187 19.5666 17.6234C19.9619 17.1951 20.3902 16.701 21.2796 16.701C22.1689 16.701 22.5972 17.1951 22.9925 17.6234C23.3549 18.0187 23.6184 18.3151 24.2113 18.3151C24.4089 18.3151 24.5407 18.4469 24.5407 18.6445C24.5408 18.8422 24.4089 18.9739 24.2113 18.9739Z" fill="#5674DE"/>
<path d="M24.2113 16.3387C23.3219 16.3387 22.8936 15.8446 22.4983 15.4163C22.136 15.021 21.8724 14.7246 21.2796 14.7246C20.6866 14.7246 20.4232 15.021 20.0608 15.4163C19.6655 15.8446 19.2372 16.3387 18.3478 16.3387C17.4585 16.3387 17.0302 15.8446 16.6349 15.4163C16.2725 15.021 16.009 14.7246 15.4161 14.7246C14.8232 14.7246 14.5597 15.021 14.1974 15.4163C13.802 15.8446 13.3738 16.3387 12.4844 16.3387C11.595 16.3387 11.1668 15.8446 10.7714 15.4163C10.4091 15.021 10.1455 14.7246 9.55268 14.7246C8.95972 14.7246 8.69628 15.021 8.33392 15.4163C7.93861 15.8446 7.51032 16.3387 6.62096 16.3387C5.7316 16.3387 5.30332 15.8446 4.908 15.4163C4.54566 15.021 4.28208 14.7246 3.68924 14.7246C3.49158 14.7246 3.35986 14.5929 3.35986 14.3952C3.35986 14.1976 3.49158 14.0659 3.68924 14.0659C4.5786 14.0659 5.00688 14.5599 5.4022 14.9882C5.76454 15.3835 6.02812 15.6799 6.62096 15.6799C7.21392 15.6799 7.47736 15.3835 7.83972 14.9882C8.23503 14.5599 8.66332 14.0659 9.55268 14.0659C10.442 14.0659 10.8703 14.5599 11.2656 14.9882C11.628 15.3835 11.8916 15.6799 12.4844 15.6799C13.0774 15.6799 13.3408 15.3835 13.7032 14.9882C14.0985 14.5599 14.5268 14.0659 15.4161 14.0659C16.3055 14.0659 16.7338 14.5599 17.1291 14.9882C17.4914 15.3835 17.755 15.6799 18.3478 15.6799C18.9408 15.6799 19.2042 15.3835 19.5666 14.9882C19.9619 14.5599 20.3902 14.0659 21.2796 14.0659C22.1689 14.0659 22.5972 14.5599 22.9925 14.9882C23.3549 15.3835 23.6184 15.6799 24.2113 15.6799C24.4089 15.6799 24.5407 15.8117 24.5407 16.0093C24.5408 16.207 24.4089 16.3387 24.2113 16.3387Z" fill="#5674DE"/>
<path d="M9.05838 14.7247C8.86072 14.7247 8.729 14.593 8.729 14.3953V5.17171C8.729 4.18343 9.55261 3.35999 10.5407 3.35999C11.529 3.35999 12.3526 4.15063 12.3526 5.17171C12.3526 5.36936 12.2209 5.50108 12.0232 5.50108C11.8256 5.50108 11.6939 5.36936 11.6939 5.17171C11.6939 4.54579 11.1668 4.01875 10.5409 4.01875C9.91497 4.01875 9.38793 4.51295 9.38793 5.17171V14.3953C9.38793 14.56 9.25606 14.7247 9.0584 14.7247H9.05838Z" fill="#5674DE"/>
<path d="M15.1524 14.7247C14.9547 14.7247 14.823 14.593 14.823 14.3953V5.17171C14.823 4.18343 15.6466 3.35999 16.6347 3.35999C17.623 3.35999 18.4464 4.18359 18.4464 5.17171C18.4464 5.36936 18.3147 5.50108 18.1171 5.50108C17.9194 5.50108 17.7877 5.36936 17.7877 5.17171C17.7877 4.54579 17.2606 4.01875 16.6347 4.01875C16.0088 4.01875 15.4818 4.54579 15.4818 5.17171V14.3953C15.4818 14.56 15.35 14.7247 15.1524 14.7247H15.1524Z" fill="#5674DE"/>
<path d="M15.1525 7.31311H9.05814C8.86048 7.31311 8.72876 7.18139 8.72876 6.98373C8.72876 6.78608 8.86048 6.65436 9.05814 6.65436H15.1521C15.3498 6.65436 15.4815 6.78608 15.4815 6.98373C15.4817 7.18123 15.3499 7.31311 15.1523 7.31311H15.1525Z" fill="#5674DE"/>
<path d="M15.1525 9.61866H9.05814C8.86048 9.61866 8.72876 9.48693 8.72876 9.28928C8.72876 9.09162 8.86048 8.9599 9.05814 8.9599H15.1521C15.3498 8.9599 15.4815 9.09162 15.4815 9.28928C15.4817 9.48693 15.3499 9.61866 15.1523 9.61866H15.1525Z" fill="#5674DE"/>
<path d="M15.1525 11.9247H9.05814C8.86048 11.9247 8.72876 11.793 8.72876 11.5953C8.72876 11.3977 8.86048 11.2659 9.05814 11.2659H15.1521C15.3498 11.2659 15.4815 11.3977 15.4815 11.5953C15.4817 11.793 15.3499 11.9247 15.1523 11.9247H15.1525Z" fill="#5674DE"/>
<path d="M15.1525 14.2307H9.05814C8.86048 14.2307 8.72876 14.099 8.72876 13.9013C8.72876 13.7037 8.86048 13.572 9.05814 13.572H15.1521C15.3498 13.572 15.4815 13.7037 15.4815 13.9013C15.4817 14.0988 15.3499 14.2307 15.1523 14.2307H15.1525Z" fill="#5674DE"/>
</svg>
