<svg width="25" height="25" viewBox="0 0 25 25" fill="none" xmlns="http://www.w3.org/2000/svg">
<path d="M20.5752 5.42425C19.6568 4.50586 18.3814 4 16.9838 4C15.239 4 13.4644 4.77414 12.1145 6.12404C10.8729 7.36568 10.1671 8.91407 10.0231 10.4219L10.0189 10.4215C9.85095 12.6324 9.10878 15.0808 8.28231 16.2872L8.2021 16.2072L4.21031 20.1987C3.9299 20.4791 3.9299 20.9363 4.21031 21.2165L4.7827 21.7889C4.91872 21.9251 5.09925 21.9999 5.29177 21.9999C5.48402 21.9999 5.66481 21.9251 5.80056 21.7889L9.7927 17.7971L9.71207 17.7168C10.9187 16.8903 13.3671 16.1481 15.5778 15.98C17.133 15.8316 18.6728 15.0875 19.8753 13.8846C21.0905 12.6696 21.8369 11.1271 21.9763 9.54104C22.118 7.93125 21.6204 6.46904 20.5752 5.42425L20.5752 5.42425ZM9.19628 17.201L8.79786 16.8026C9.45453 15.8999 9.99803 14.436 10.3471 12.9376C10.5829 13.547 10.9374 14.1073 11.4145 14.5844C11.8811 15.051 12.4403 15.4108 13.0603 15.652C11.5625 16.0008 10.0989 16.5446 9.19636 17.201L9.19628 17.201ZM21.2591 9.47818C21.1343 10.896 20.4624 12.2804 19.3663 13.376C18.1503 14.592 16.5615 15.2893 15.0056 15.2893C13.8008 15.2893 12.7056 14.8583 11.9234 14.0758C10.9956 13.148 10.6092 11.8516 10.7338 10.5067C10.7339 10.5029 10.7343 10.4992 10.7348 10.4956C10.8624 9.14902 11.5018 7.7542 12.6232 6.6327C13.8393 5.41688 15.4284 4.71977 16.9835 4.71977C18.1887 4.71977 19.2834 5.15055 20.066 5.93323C20.9581 6.82484 21.3817 8.08377 21.259 9.47802L21.2591 9.47818Z" fill="#5674DE"/>
<path d="M19.0188 10.1157C19.0188 11.1095 18.2133 11.9151 17.2194 11.9151C16.2257 11.9151 15.42 11.1095 15.42 10.1157C15.42 9.12202 16.2257 8.31635 17.2194 8.31635C18.2133 8.31635 19.0188 9.12202 19.0188 10.1157Z" fill="#5674DE"/>
</svg>
