<svg xmlns="http://www.w3.org/2000/svg" xmlns:xlink="http://www.w3.org/1999/xlink" width="559.783" height="283.056" viewBox="0 0 559.783 283.056">
    <defs>
        <linearGradient id="linear-gradient" x1=".5" x2=".5" y1="1" gradientUnits="objectBoundingBox">
            <stop offset="0" stop-color="gray" stop-opacity=".251"/>
            <stop offset=".54" stop-color="gray" stop-opacity=".122"/>
            <stop offset="1" stop-color="gray" stop-opacity=".102"/>
        </linearGradient>
        <linearGradient id="linear-gradient-2" x1=".5" x2=".5" y1="1" y2="0" xlink:href="#linear-gradient"/>
        <linearGradient id="linear-gradient-3" x1=".5" x2=".5" y1="1" y2="0" xlink:href="#linear-gradient"/>
        <linearGradient id="linear-gradient-5" x1=".5" x2=".5" y1="1" y2="0" xlink:href="#linear-gradient"/>
        <linearGradient id="linear-gradient-6" x1=".501" x2=".501" y1="1" y2="0" xlink:href="#linear-gradient"/>
        <linearGradient id="linear-gradient-7" x1=".5" x2=".5" y1="1" y2="0" xlink:href="#linear-gradient"/>
        <linearGradient id="linear-gradient-12" x1=".5" x2=".5" y1="1" y2="0" xlink:href="#linear-gradient"/>
        <linearGradient id="linear-gradient-13" x1=".5" x2=".5" y1="1" y2="0" xlink:href="#linear-gradient"/>
        <linearGradient id="linear-gradient-17" x1=".5" x2=".5" y1="1" y2="0" xlink:href="#linear-gradient"/>
        <linearGradient id="linear-gradient-18" x1=".501" x2=".501" y1="1" y2="0" xlink:href="#linear-gradient"/>
        <linearGradient id="linear-gradient-19" x1=".5" x2=".5" y1="1" gradientUnits="objectBoundingBox">
            <stop offset="0" stop-color="#b3b3b3" stop-opacity=".251"/>
            <stop offset=".54" stop-color="#b3b3b3" stop-opacity=".102"/>
            <stop offset="1" stop-color="#b3b3b3" stop-opacity=".051"/>
        </linearGradient>
        <linearGradient id="linear-gradient-20" x1=".5" x2=".5" y1="1.001" gradientUnits="objectBoundingBox">
            <stop offset="0" stop-opacity=".122"/>
            <stop offset=".55" stop-opacity=".09"/>
            <stop offset="1" stop-opacity=".02"/>
        </linearGradient>
        <style>
            .cls-1{fill:none;stroke:#ff9800;stroke-miterlimit:10;stroke-width:4px;stroke-dasharray:12;opacity:.3}.cls-11,.cls-12,.cls-13,.cls-14,.cls-16,.cls-17,.cls-20,.cls-3,.cls-4,.cls-6,.cls-7{stroke:#707070}.cls-3{fill:#009688}.cls-4{fill:#795548}.cls-6{fill:url(#linear-gradient-3)}.cls-7{fill:#00897b}.cls-11{fill:#fff}.cls-12{fill:#6c63ff}.cls-13{fill:#fdce65}.cls-14{fill:#dd9dad}.cls-16{fill:#6cc7c8}.cls-17{fill:#f2f2f2}.cls-20{fill:url(#linear-gradient-13)}
        </style>
    </defs>
    <g id="undraw_house_searching_n8mp_1_" transform="translate(.51 .513)">
        <circle id="Ellipse_8" cx="105.467" cy="105.467" r="105.467" class="cls-1" transform="translate(19.525 30.441)"/>
        <circle id="Ellipse_9" cx="105.467" cy="105.467" r="105.467" class="cls-1" transform="translate(297.679 9.579)"/>
        <g id="_Group_" transform="translate(432.015 90.794)">
            <path id="Path_50" fill="url(#linear-gradient)" stroke="#707070" d="M903.723 471.156a26.077 26.077 0 0 1-7.081-17.842 26.488 26.488 0 0 1 12.992-22.641 15.374 15.374 0 0 1-2.712-8.692c0-8.744 7.336-15.832 16.388-15.832a16.313 16.313 0 0 1 15.722 11.4 24.588 24.588 0 0 1 20.908-11.4c13.485 0 24.42 10.564 24.42 23.591a22.829 22.829 0 0 1-1.495 8.142c.493-.035.991-.075 1.495-.075 10.825 0 19.6 8.478 19.6 18.938a18.494 18.494 0 0 1-.1 1.912 23.518 23.518 0 0 1 14.719 21.6c0 12.986-10.894 23.516-24.339 23.516a25.3 25.3 0 0 1-4.213-.359c.069.782.116 1.576.116 2.376 0 14.574-12.227 26.39-27.311 26.39a27.816 27.816 0 0 1-15.553-4.7 20.734 20.734 0 0 1-13.207 4.7c-11.271 0-20.4-8.826-20.4-19.7 0-.469.041-.933.075-1.4h-.075c-12.065 0-21.847-9.451-21.847-21.111a21.036 21.036 0 0 1 11.898-18.813z" transform="translate(-891.82 -406.148)"/>
        </g>
        <path id="_Path_" d="M907.9 473.012a24.976 24.976 0 0 1-6.774-17.078 25.353 25.353 0 0 1 12.436-21.673 14.712 14.712 0 0 1-2.6-8.339 15.428 15.428 0 0 1 15.687-15.154 15.646 15.646 0 0 1 15.067 10.906 23.539 23.539 0 0 1 19.975-10.9c12.911 0 23.371 10.112 23.371 22.6a21.855 21.855 0 0 1-1.431 7.794c.475-.035.95-.07 1.431-.07 10.361 0 18.758 8.113 18.758 18.126a17.749 17.749 0 0 1-.1 1.831 22.537 22.537 0 0 1 14.087 20.676c0 12.43-10.431 22.507-23.3 22.507a24.22 24.22 0 0 1-4.058-.342c.071.748.112 1.507.112 2.272 0 13.948-11.706 25.254-26.141 25.254a26.657 26.657 0 0 1-14.887-4.5 19.848 19.848 0 0 1-12.592 4.508c-10.784 0-19.529-8.449-19.529-18.868 0-.452.035-.892.07-1.339h-.07c-11.549 0-20.914-9.046-20.914-20.207a20.137 20.137 0 0 1 11.402-18.004z" class="cls-3" transform="translate(-461.777 -317.298)"/>
        <path id="_Path_2" d="M0 0L0 140.375" class="cls-4" transform="translate(490.434 129.296)"/>
        <path id="Rectangle_19" fill="url(#linear-gradient-2)" stroke="#707070" d="M0 0H7.643V140.369H0z" transform="translate(486.482 129.296)"/>
        <path id="Rectangle_20" d="M0 0H4.23V140.369H0z" class="cls-4" transform="translate(488.319 129.296)"/>
        <path id="_Path_3" d="M25.069 25.567L0 0" class="cls-4" transform="translate(465.794 145.771)"/>
        <path id="Rectangle_21" d="M0 0H4.23V35.807H0z" class="cls-4" transform="rotate(-44.44 412.496 -494.738)"/>
        <path id="_Path_4" d="M0 18.231L25.984 0" class="cls-4" transform="translate(490.863 175.081)"/>
        <path id="Rectangle_22" d="M0 0H31.744V4.23H0z" class="cls-4" transform="rotate(-35.06 548.06 -679.277)"/>
        <g id="_Group_2" transform="translate(383.489 91.803)">
            <path id="Path_51" d="M918.976 474.351a27.665 27.665 0 0 0-5.708-41.375 16.359 16.359 0 0 0 2.619-8.907 15.779 15.779 0 0 0-31-4.532A23.464 23.464 0 0 0 864.7 407.89c-13.021 0-23.579 10.8-23.579 24.112a24.549 24.549 0 0 0 1.443 8.321c-.475-.035-.956-.075-1.443-.075A19.175 19.175 0 0 0 822.2 459.6c0 .661.035 1.31.1 1.953a24.054 24.054 0 0 0-14.215 22.078c0 13.276 10.523 24.037 23.5 24.037a23.1 23.1 0 0 0 4.056-.365c-.07.8-.11 1.611-.11 2.428 0 14.893 11.8 26.969 26.372 26.969a25.839 25.839 0 0 0 15.015-4.8 19.355 19.355 0 0 0 12.749 4.8 19.93 19.93 0 0 0 19.7-20.149c0-.481-.041-.956-.07-1.431h.07a21.336 21.336 0 0 0 21.093-21.574 21.626 21.626 0 0 0-11.484-19.195z" class="cls-6" transform="translate(-808.079 -407.89)"/>
        </g>
        <path id="_Path_5" d="M918.678 477.092a25.967 25.967 0 0 0-5.36-38.826 15.356 15.356 0 0 0 2.457-8.362 14.8 14.8 0 0 0-29.079-4.259 22.02 22.02 0 0 0-18.949-10.935 22.388 22.388 0 0 0-22.131 22.635 23.047 23.047 0 0 0 1.356 7.811c-.446-.035-.9-.07-1.356-.07a17.953 17.953 0 0 0-17.761 18.167 17.381 17.381 0 0 0 .093 1.831 22.6 22.6 0 0 0-13.328 20.728 22.3 22.3 0 0 0 22.061 22.559 21.687 21.687 0 0 0 3.819-.342c-.064.753-.1 1.512-.1 2.277 0 13.983 11.08 25.312 24.75 25.312a24.251 24.251 0 0 0 14.093-4.508 18.166 18.166 0 0 0 11.957 4.51 18.707 18.707 0 0 0 18.5-18.914c0-.452-.035-.9-.064-1.344h.064a20.032 20.032 0 0 0 19.8-20.253 20.282 20.282 0 0 0-10.822-18.017z" class="cls-7" transform="translate(-427.341 -318.955)"/>
        <path id="Rectangle_23" d="M0 0H5.749V143.006H0z" class="cls-6" transform="translate(446.543 129.244)"/>
        <path id="Rectangle_24" d="M0 0H2.892V140.995H0z" class="cls-4" transform="translate(448.177 131.254)"/>
        <path id="Rectangle_25" d="M0 0H34.932V2.892H0z" class="cls-4" transform="rotate(-47.2 421.686 -426.218)"/>
        <path id="Rectangle_26" d="M0 0H2.892V30.649H0z" class="cls-4" transform="rotate(-53.42 389.352 -331.524)"/>
        <g id="_Group_3" transform="translate(375.51 155.755)">
            <path id="Path_52" fill="url(#linear-gradient-5)" stroke="#707070" d="M802.423 562.575a17.784 17.784 0 0 1-4.821-12.169 18.051 18.051 0 0 1 8.855-15.426 10.477 10.477 0 0 1-1.849-5.94 10.985 10.985 0 0 1 11.167-10.79 11.12 11.12 0 0 1 10.715 7.765 16.759 16.759 0 0 1 14.25-7.765c9.191 0 16.643 7.2 16.643 16.075a15.56 15.56 0 0 1-1.02 5.552c.336 0 .672-.052 1.02-.052a13.123 13.123 0 0 1 13.328 12.905 12.608 12.608 0 0 1-.07 1.3 16.023 16.023 0 0 1 10.031 14.725c0 8.849-7.423 16.023-16.585 16.023a17.238 17.238 0 0 1-2.9-.243c.052.533.081 1.072.081 1.617 0 9.932-8.333 17.964-18.613 17.964a18.972 18.972 0 0 1-10.552-3.147 14.128 14.128 0 0 1-9 3.176 13.679 13.679 0 0 1-13.903-13.43 5.73 5.73 0 0 1 .052-.95h-.052a14.64 14.64 0 0 1-14.887-14.383 14.336 14.336 0 0 1 8.11-12.807z" transform="translate(-794.31 -518.249)"/>
        </g>
        <path id="_Path_6" d="M805.248 563.862a17.019 17.019 0 0 1-4.636-11.636 17.275 17.275 0 0 1 8.478-14.765 10.025 10.025 0 0 1-1.767-5.685 10.513 10.513 0 0 1 10.686-10.326 10.639 10.639 0 0 1 10.257 7.435 16.04 16.04 0 0 1 13.634-7.435 15.668 15.668 0 0 1 15.93 15.391 14.89 14.89 0 0 1-.974 5.314c.325 0 .643-.046.974-.046a12.573 12.573 0 0 1 12.784 12.349 12.083 12.083 0 0 1-.064 1.246 15.339 15.339 0 0 1 9.6 14.093 15.616 15.616 0 0 1-15.878 15.339 16.5 16.5 0 0 1-2.747-.232c.046.51.075 1.026.075 1.547 0 9.5-7.974 17.211-17.813 17.211a18.161 18.161 0 0 1-10.141-3.065 13.525 13.525 0 0 1-8.611 3.065A13.106 13.106 0 0 1 811.71 590.8a5.941 5.941 0 0 1 .046-.91h-.046a14.016 14.016 0 0 1-14.25-13.769 13.722 13.722 0 0 1 7.788-12.262z" class="cls-3" transform="translate(-420.125 -363.84)"/>
        <path id="_Path_7" d="M0 0L0 95.656" class="cls-4" transform="translate(415.32 182.018)"/>
        <path id="Rectangle_27" fill="url(#linear-gradient-6)" stroke="#707070" d="M0 0H5.21V95.656H0z" transform="translate(412.626 182.018)"/>
        <path id="Rectangle_28" d="M0 0H2.88V95.656H0z" class="cls-4" transform="translate(413.878 182.018)"/>
        <path id="_Path_8" d="M17.078 17.425L0 0" class="cls-4" transform="translate(398.533 193.242)"/>
        <path id="Rectangle_29" d="M0 0H2.88V24.396H0z" class="cls-4" transform="rotate(-44.44 436.624 -389.468)"/>
        <path id="_Path_9" d="M0 12.424L17.709 0" class="cls-4" transform="translate(415.61 213.217)"/>
        <path id="Rectangle_30" d="M0 0H21.632V2.88H0z" class="cls-4" transform="rotate(-35.06 562.674 -544.342)"/>
        <g id="_Group_4" transform="translate(358.188 158.311)">
            <path id="Path_53" fill="url(#linear-gradient-7)" stroke="#707070" d="M838.861 567.269a18.544 18.544 0 0 0-3.83-27.769 11.01 11.01 0 0 0 1.738-5.98 10.593 10.593 0 0 0-20.809-3.042 15.75 15.75 0 0 0-13.537-7.817 16.008 16.008 0 0 0-15.823 16.184 16.482 16.482 0 0 0 .968 5.586c-.319 0-.643-.052-.968-.052a12.847 12.847 0 0 0-12.7 12.992 8.928 8.928 0 0 0 .064 1.31 16.144 16.144 0 0 0-9.544 14.819 15.96 15.96 0 0 0 15.774 16.133 15.52 15.52 0 0 0 2.729-.243c-.046.539-.075 1.078-.075 1.628a17.908 17.908 0 0 0 17.7 18.1 17.343 17.343 0 0 0 10.077-3.222 12.992 12.992 0 0 0 8.559 3.222 13.374 13.374 0 0 0 13.221-13.518 6.608 6.608 0 0 0-.046-.962h.046a14.326 14.326 0 0 0 14.163-14.487 14.516 14.516 0 0 0-7.707-12.882z" transform="translate(-764.419 -522.66)"/>
        </g>
        <path id="_Path_10" d="M838.649 569.11a17.431 17.431 0 0 0-3.6-26.077 10.309 10.309 0 0 0 1.651-5.609 9.944 9.944 0 0 0-19.535-2.857 14.783 14.783 0 0 0-12.72-7.336 15.025 15.025 0 0 0-14.852 15.194 15.468 15.468 0 0 0 .91 5.244c-.3 0-.579-.046-.91-.046a12.059 12.059 0 0 0-11.92 12.169 8.631 8.631 0 0 0 .058 1.229 15.154 15.154 0 0 0-8.953 13.908 14.978 14.978 0 0 0 14.806 15.142 14.57 14.57 0 0 0 2.561-.232q-.07.756-.07 1.53a16.808 16.808 0 0 0 16.614 16.991 16.278 16.278 0 0 0 9.463-3.025 12.17 12.17 0 0 0 8.032 3.025 12.557 12.557 0 0 0 12.416-12.693 5.957 5.957 0 0 0-.046-.9h.046a13.444 13.444 0 0 0 13.294-13.595 13.624 13.624 0 0 0-7.244-12.065z" class="cls-7" transform="translate(-408.064 -366.271)"/>
        <path id="Rectangle_31" d="M0 0H3.859V95.986H0z" class="cls-6" transform="translate(400.52 183.443)"/>
        <path id="Rectangle_32" d="M0 0H1.941V94.636H0z" class="cls-4" transform="translate(401.616 184.793)"/>
        <path id="Rectangle_33" d="M0 0H23.446V1.941H0z" class="cls-4" transform="rotate(-47.2 444.09 -353.088)"/>
        <path id="Rectangle_34" d="M0 0H1.941V20.572H0z" class="cls-4" transform="rotate(-53.42 407.821 -274.34)"/>
        <path id="Rectangle_35" d="M0 0H163.416V145.451H0z" class="cls-6" transform="translate(234.839 136.366)"/>
        <path id="Rectangle_36" d="M0 0H266.564V140.816H0z" class="cls-11" transform="translate(127.634 136.366)"/>
        <path id="Path_54" d="M658.5 459.17H396.57v-68.38h252.367a9.562 9.562 0 0 1 9.562 9.562z" class="cls-6" transform="translate(-251.546 -308.896)"/>
        <path id="Path_55" d="M250.26 146h250.118a9.562 9.562 0 0 1 9.562 9.562v54.35H250.26z" class="cls-12" transform="translate(-105.242 -61.4)"/>
        <path id="Path_56" d="M250.26 146h250.118a9.562 9.562 0 0 1 9.562 9.562v54.35H250.26z" class="cls-13" transform="translate(-105.242 -61.4)"/>
        <path id="Path_57" d="M183.66 13.32l-90.4 63.663v210.435h180.8V76.983z" class="cls-6" transform="translate(-39.221 -5.607)"/>
        <path id="Path_58" d="M273.788 75.91l-85.764-62.59-85.764 62.59v52.728h171.528z" class="cls-12" transform="translate(-43.006 -5.607)"/>
        <path id="Path_59" d="M273.788 75.91l-85.764-62.59-85.764 62.59v52.728h171.528z" class="cls-14" transform="translate(-43.006 -5.607)"/>
        <path id="Rectangle_37" d="M0 0H171.528V154.144H0z" class="cls-11" transform="translate(59.254 123.037)"/>
        <path id="Path_60" fill="url(#linear-gradient-12)" stroke="#707070" d="M271.342 102.592l-96.774-69.1-97.933 69.1-6.374-24.3L174.568 2.37l104.308 75.919z" transform="translate(-29.549 -1.002)"/>
        <path id="Path_61" d="M273.6 100.523l-95.891-69.788-95.882 69.788L77.73 78.67l99.979-72.76 99.985 72.76z" class="cls-12" transform="translate(-32.691 -2.491)"/>
        <path id="Path_62" d="M273.6 100.523l-95.891-69.788-95.882 69.788L77.73 78.67l99.979-72.76 99.985 72.76z" class="cls-16" transform="translate(-32.691 -2.491)"/>
        <path id="Rectangle_38" d="M0 0H97.354V120.533H0z" class="cls-17" transform="translate(96.341 156.648)"/>
        <path id="Rectangle_39" d="M0 0H97.354V20.862H0z" class="cls-13" transform="translate(96.341 156.648)"/>
        <path id="Rectangle_40" d="M0 0H97.354V20.862H0z" class="cls-13" transform="translate(96.341 256.319)"/>
        <path id="Path_63" fill="lime" stroke="#707070" d="M677.269 651.738a.869.869 0 1 0-.869-.869.869.869 0 0 0 .869.869z" transform="translate(-369.218 -417.897)"/>
        <path id="Rectangle_41" d="M0 0H47.518V88.082H0z" class="cls-17" transform="translate(284.095 189.099)"/>
        <path id="Rectangle_42" d="M0 0H44.621V32.451H0z" class="cls-17" transform="translate(343.783 170.555)"/>
        <path id="Rectangle_43" fill="#6c63ff" stroke="#707070" d="M0 0H44.621V14.487H0z" opacity="0.2" transform="translate(343.783 170.555)"/>
        <g id="_Group_5" transform="translate(28.385 180.417)">
            <path id="Path_64" d="M202.076 597.746a14.823 14.823 0 0 1-4.056-10.135 15.067 15.067 0 0 1 7.383-12.859 8.733 8.733 0 0 1-1.541-4.949 9.156 9.156 0 0 1 9.307-8.994 9.272 9.272 0 0 1 8.947 6.484 13.972 13.972 0 0 1 11.879-6.473 13.647 13.647 0 0 1 13.873 13.4 12.974 12.974 0 0 1-.852 4.636c.284 0 .579-.041.852-.041A10.948 10.948 0 0 1 259 589.575a10.5 10.5 0 0 1-.058 1.084 13.357 13.357 0 0 1 8.362 12.274 13.6 13.6 0 0 1-13.827 13.357 14.367 14.367 0 0 1-2.393-.2c.041.446.064.892.064 1.35a15.263 15.263 0 0 1-15.513 14.991 15.814 15.814 0 0 1-8.837-2.671 11.781 11.781 0 0 1-7.5 2.671 11.416 11.416 0 0 1-11.59-11.2 5.169 5.169 0 0 1 .041-.794h-.049a12.209 12.209 0 0 1-12.413-11.99 11.949 11.949 0 0 1 6.786-10.7z" class="cls-20" transform="translate(-195.29 -560.808)"/>
        </g>
        <path id="_Path_11" d="M204.437 598.809a14.192 14.192 0 0 1-3.848-9.7 14.4 14.4 0 0 1 7.064-12.308 8.356 8.356 0 0 1-1.472-4.74 8.762 8.762 0 0 1 8.913-8.611 8.872 8.872 0 0 1 8.547 6.195 13.369 13.369 0 0 1 11.37-6.195 13.059 13.059 0 0 1 13.276 12.83 12.418 12.418 0 0 1-.811 4.427c.267 0 .539-.041.811-.041a10.5 10.5 0 0 1 10.657 10.3 10.065 10.065 0 0 1-.052 1.037 12.789 12.789 0 0 1 8 11.752 13.016 13.016 0 0 1-13.235 12.789 13.743 13.743 0 0 1-2.316-.2c.039.423.062.857.062 1.292a14.607 14.607 0 0 1-14.852 14.348 15.137 15.137 0 0 1-8.427-2.562 11.271 11.271 0 0 1-7.179 2.556 10.91 10.91 0 0 1-11.091-10.721 4.728 4.728 0 0 1 .041-.759h-.041a11.686 11.686 0 0 1-11.88-11.48 11.439 11.439 0 0 1 6.463-10.209z" class="cls-3" transform="translate(-168.032 -381.501)"/>
        <path id="_Path_12" d="M0 0L0 79.743" class="cls-4" transform="translate(61.578 202.3)"/>
        <path id="Rectangle_44" d="M0 0H4.346V79.743H0z" class="cls-6" transform="translate(59.33 202.3)"/>
        <path id="Rectangle_45" d="M0 0H2.399V79.743H0z" class="cls-4" transform="translate(60.373 202.3)"/>
        <path id="_Path_13" d="M14.244 14.528L0 0" class="cls-4" transform="translate(47.578 211.653)"/>
        <path id="Rectangle_46" d="M0 0H2.399V20.34H0z" class="cls-4" transform="rotate(-44.44 283.507 49.088)"/>
        <path id="_Path_14" d="M0 10.355L14.76 0" class="cls-4" transform="translate(61.821 228.307)"/>
        <path id="Rectangle_47" d="M0 0H18.034V2.399H0z" class="cls-4" transform="rotate(-35.06 406.779 22.075)"/>
        <g id="_Group_6" transform="translate(-.01 180.417)">
            <path id="Path_65" d="M153.076 597.746a14.823 14.823 0 0 1-4.056-10.135 15.067 15.067 0 0 1 7.383-12.859 8.733 8.733 0 0 1-1.541-4.949 9.156 9.156 0 0 1 9.307-8.994 9.272 9.272 0 0 1 8.947 6.484 13.972 13.972 0 0 1 11.88-6.473 13.647 13.647 0 0 1 13.873 13.4 12.975 12.975 0 0 1-.852 4.636c.284 0 .579-.041.852-.041A10.948 10.948 0 0 1 210 589.575a10.514 10.514 0 0 1-.058 1.084 13.357 13.357 0 0 1 8.362 12.274 13.6 13.6 0 0 1-13.827 13.357 14.367 14.367 0 0 1-2.393-.2c.041.446.064.892.064 1.35a15.263 15.263 0 0 1-15.513 14.991 15.814 15.814 0 0 1-8.837-2.671 11.781 11.781 0 0 1-7.5 2.671 11.416 11.416 0 0 1-11.59-11.2 5.169 5.169 0 0 1 .041-.794h-.049a12.209 12.209 0 0 1-12.413-11.99 11.949 11.949 0 0 1 6.789-10.701z" class="cls-20" transform="translate(-146.29 -560.808)"/>
        </g>
        <path id="_Path_15" d="M155.437 598.809a14.192 14.192 0 0 1-3.848-9.7 14.4 14.4 0 0 1 7.064-12.308 8.356 8.356 0 0 1-1.472-4.74 8.762 8.762 0 0 1 8.913-8.611 8.872 8.872 0 0 1 8.547 6.195 13.369 13.369 0 0 1 11.37-6.195 13.059 13.059 0 0 1 13.276 12.83 12.419 12.419 0 0 1-.811 4.427c.267 0 .539-.041.811-.041a10.5 10.5 0 0 1 10.657 10.3 10.065 10.065 0 0 1-.052 1.037 12.789 12.789 0 0 1 8 11.752 13.016 13.016 0 0 1-13.236 12.789 13.743 13.743 0 0 1-2.316-.2c.039.423.062.857.062 1.292a14.607 14.607 0 0 1-14.852 14.348 15.137 15.137 0 0 1-8.427-2.562 11.271 11.271 0 0 1-7.179 2.556 10.91 10.91 0 0 1-11.091-10.721 4.728 4.728 0 0 1 .041-.759h-.041a11.686 11.686 0 0 1-11.879-11.48 11.439 11.439 0 0 1 6.463-10.209z" class="cls-3" transform="translate(-147.427 -381.501)"/>
        <path id="_Path_16" d="M0 0L0 79.743" class="cls-4" transform="translate(33.183 202.3)"/>
        <path id="Rectangle_48" d="M0 0H4.346V79.743H0z" class="cls-6" transform="translate(30.935 202.3)"/>
        <path id="Rectangle_49" d="M0 0H2.399V79.743H0z" class="cls-4" transform="translate(31.978 202.3)"/>
        <path id="_Path_17" d="M14.244 14.528L0 0" class="cls-4" transform="translate(19.183 211.653)"/>
        <path id="Rectangle_50" d="M0 0H2.399V20.34H0z" class="cls-4" transform="rotate(-44.44 269.308 83.844)"/>
        <path id="_Path_18" d="M0 10.355L14.76 0" class="cls-4" transform="translate(33.426 228.307)"/>
        <path id="Rectangle_51" d="M0 0H18.034V2.399H0z" class="cls-4" transform="rotate(-35.06 392.588 67.022)"/>
        <g id="_Group_7" transform="translate(9.308 180.766)">
            <path id="Path_66" fill="url(#linear-gradient-17)" stroke="#707070" d="M224.433 598.63a15.478 15.478 0 0 0-3.193-23.18 9.156 9.156 0 0 0 1.466-4.984 8.831 8.831 0 0 0-17.35-2.538 13.131 13.131 0 0 0-11.294-6.519 13.328 13.328 0 0 0-13.195 13.49 13.74 13.74 0 0 0 .806 4.636c-.267 0-.533-.041-.806-.041a10.709 10.709 0 0 0-10.6 10.883 7.621 7.621 0 0 0 .052 1.1 13.5 13.5 0 0 0 5.2 25.8 12.928 12.928 0 0 0 2.277-.2c-.041.446-.064.9-.064 1.356a14.906 14.906 0 0 0 14.754 15.067 14.489 14.489 0 0 0 8.4-2.689 10.831 10.831 0 0 0 7.133 2.689 11.15 11.15 0 0 0 11.01-11.271 5.244 5.244 0 0 0-.041-.8h.041a11.943 11.943 0 0 0 11.8-12.071 12.1 12.1 0 0 0-6.396-10.728z" transform="translate(-162.369 -561.41)"/>
        </g>
        <path id="_Path_19" d="M224.281 600.183a14.528 14.528 0 0 0-3-21.731 8.594 8.594 0 0 0 1.373-4.677 8.287 8.287 0 0 0-16.284-2.382 12.326 12.326 0 0 0-10.6-6.119 12.529 12.529 0 0 0-12.355 12.668 12.893 12.893 0 0 0 .759 4.369c-.249 0-.5-.04-.759-.04a10.054 10.054 0 0 0-9.938 10.164 6.685 6.685 0 0 0 .052 1.026 12.633 12.633 0 0 0-7.464 11.59 12.488 12.488 0 0 0 12.335 12.621 12.129 12.129 0 0 0 2.138-.191c-.035.423-.058.846-.058 1.275a14.008 14.008 0 0 0 13.85 14.163 13.572 13.572 0 0 0 7.887-2.521 10.164 10.164 0 0 0 6.687 2.515 10.466 10.466 0 0 0 10.35-10.581 5.424 5.424 0 0 0-.035-.753h.035a11.207 11.207 0 0 0 11.08-11.335 11.358 11.358 0 0 0-6.053-10.061z" class="cls-7" transform="translate(-154.613 -382.267)"/>
        <path id="Rectangle_52" fill="url(#linear-gradient-18)" stroke="#707070" d="M0 0H3.216V80.021H0z" transform="translate(44.599 201.749)"/>
        <path id="Rectangle_53" d="M0 0H1.617V78.897H0z" class="cls-4" transform="translate(45.515 202.873)"/>
        <path id="Rectangle_54" d="M0 0H19.546V1.617H0z" class="cls-4" transform="rotate(-47.2 281.453 61.122)"/>
        <path id="Rectangle_55" d="M0 0H1.617V17.153H0z" class="cls-4" transform="rotate(-53.42 243.855 83.196)"/>
        <path id="Path_67" fill="url(#linear-gradient-19)" stroke="#707070" d="M749 282.487a88.662 88.662 0 0 0-126.908-.956c-33.558 33.831-34.126 88.911-1.3 123.431a88.662 88.662 0 0 0 113.707 12.569l64.091 66.641a4.311 4.311 0 0 0 6.1.122l15.965-15.351a4.311 4.311 0 0 0 .122-6.1L756.682 396.2A88.662 88.662 0 0 0 749 282.487zm-19.966 107.159a63.413 63.413 0 1 1 1.738-89.664 63.413 63.413 0 0 1-1.738 89.664z" transform="translate(-335.636 -251.907)"/>
        <path id="Path_68" fill="url(#linear-gradient-20)" stroke="#707070" d="M664.4 377.85c-7.134 0-7.145 11.08 0 11.08s7.144-11.08 0-11.08z" transform="translate(-361.922 -303.455)"/>
        <path id="Path_69" d="M720.265 316.58c-19.193-.435-36.664 9.2-45.948 23.759-3.031 4.74 5.575 8.93 8.588 4.213 7.69-12.036 22.3-19.7 38.1-19.28a48.555 48.555 0 0 1 39.614 23.04c3.031 4.989 10.958.452 7.951-4.508-9.688-15.976-28.47-26.778-48.305-27.224z" class="cls-13" transform="translate(-368.074 -277.684)"/>
        <path id="Path_70" d="M761 276.667a88.662 88.662 0 0 0-126.908-.956c-33.558 33.831-34.126 88.911-1.3 123.431a88.662 88.662 0 0 0 113.707 12.569l64.091 66.641a4.311 4.311 0 0 0 6.1.122l15.971-15.356a4.311 4.311 0 0 0 .122-6.1l-64.091-66.641A88.662 88.662 0 0 0 761 276.667zm-19.966 107.159a63.413 63.413 0 1 1 1.738-89.664 63.413 63.413 0 0 1-1.738 89.664z" class="cls-16" transform="translate(-340.682 -249.46)"/>
        <path id="Path_71" d="M676.4 372c-7.133 0-7.145 11.08 0 11.08s7.144-11.08 0-11.08z" class="cls-14" transform="translate(-366.968 -300.995)"/>
        <path id="Path_72" d="M732.265 310.76c-19.193-.435-36.664 9.2-45.948 23.759-3.031 4.74 5.575 8.93 8.588 4.213 7.69-12.036 22.3-19.7 38.1-19.28a48.555 48.555 0 0 1 39.614 23.04c3.031 4.989 10.958.452 7.951-4.508-9.688-15.965-28.47-26.772-48.305-27.224z" class="cls-14" transform="translate(-373.12 -275.237)"/>
    </g>
</svg>
